<svg xmlns="http://www.w3.org/2000/svg" width="80" height="29" version="1.1" viewBox="0 0 80 29"><g id="Entry-Points" fill="none" fill-rule="evenodd" stroke="none" stroke-width="1"><g id="Mobile-Recommender-Entry-Points-V2" fill="#FFF" fill-rule="nonzero" transform="translate(-237 -335)"><path id="Path" d="m260.488 343.501.064.998-1.463.1c-13.499.967-22.589 3.03-22.589 4.897 0 2.808 18.391 5.5 40.5 5.5l1.322-.004c21.515-.104 39.178-2.744 39.178-5.496 0-1.748-8.118-3.714-20.472-4.735l-1.444-.114.074-.997 1.471.115c13.218 1.083 21.371 3.085 21.371 5.73 0 3.82-18.322 6.5-41.5 6.5l-1.385-.003c-22.519-.104-40.115-2.754-40.115-6.496 0-2.81 9.304-4.918 23.968-5.927l1.02-.068Z" transform="rotate(-17 277 349.748)"/></g></g></svg>