<svg xmlns="http://www.w3.org/2000/svg" width="24" height="10" version="1.1" viewBox="0 0 24 10"><g id="Entry-Points" fill="none" fill-rule="evenodd" stroke="none" stroke-width="1" opacity=".8"><g id="Mobile-Recommender-Entry-Points-V2" fill="#9E9E9E" fill-rule="nonzero" transform="translate(-310 -361)"><g id="Group-8" transform="translate(0 290)"><g id="Group-9-Copy-2" transform="rotate(7 -233.522 1847.334)"><path id="Seats?" d="M92.56 24.516c.623 0 1.116-.14 1.48-.42.363-.28.544-.657.544-1.131 0-.292-.062-.546-.187-.764a1.696 1.696 0 0 0-.59-.578c-.268-.168-.624-.318-1.067-.45-.442-.13-.76-.266-.953-.405-.192-.14-.289-.314-.289-.522 0-.247.09-.44.268-.578.178-.138.429-.207.752-.207.346 0 .612.084.799.252.186.168.279.4.279.697h.984c0-.328-.088-.627-.265-.896a1.738 1.738 0 0 0-.73-.623 2.458 2.458 0 0 0-1.06-.22c-.596 0-1.08.15-1.454.446-.374.297-.561.675-.561 1.133 0 .523.26.948.777 1.273.271.17.636.323 1.094.461.458.138.775.275.951.41.176.136.264.329.264.579 0 .229-.087.413-.26.552-.173.14-.431.21-.775.21-.399 0-.705-.09-.918-.266-.214-.177-.32-.427-.32-.75h-.989c0 .357.096.669.287.937.192.268.46.479.805.631.345.152.723.229 1.135.229Zm4.66 0c.352 0 .67-.07.952-.21.283-.139.509-.335.678-.587l-.512-.489a1.285 1.285 0 0 1-1.062.528 1.05 1.05 0 0 1-.772-.305c-.204-.203-.32-.479-.35-.828h2.762v-.383c0-.672-.157-1.191-.47-1.558-.314-.368-.759-.551-1.334-.551-.362 0-.69.092-.985.277a1.858 1.858 0 0 0-.685.776 2.536 2.536 0 0 0-.245 1.13v.118c0 .63.187 1.134.561 1.513.374.38.861.569 1.463.569Zm.759-2.586H96.17c.044-.326.147-.58.307-.762a.8.8 0 0 1 .63-.273c.264 0 .47.08.618.244.148.162.233.403.254.72v.07Zm2.98 2.586c.438 0 .807-.158 1.11-.473.03.182.067.314.109.395h.969v-.067c-.107-.226-.16-.53-.16-.91v-1.906c-.008-.45-.16-.8-.454-1.05-.294-.248-.688-.372-1.183-.372-.326 0-.62.057-.885.172a1.535 1.535 0 0 0-.627.474c-.154.202-.23.419-.23.65h.949c0-.166.069-.303.207-.411a.836.836 0 0 1 .531-.163c.25 0 .436.066.559.198.122.131.183.306.183.525v.277h-.582c-.622 0-1.1.12-1.435.362-.335.24-.502.586-.502 1.037 0 .357.134.656.402.898.268.243.615.364 1.04.364Zm.176-.762c-.203 0-.365-.054-.486-.162a.555.555 0 0 1-.182-.436c0-.224.089-.397.266-.52.177-.122.441-.183.793-.183h.511v.797a.913.913 0 0 1-.373.367 1.08 1.08 0 0 1-.529.137Zm4.18.762c.2 0 .409-.03.625-.09v-.735c-.112.026-.223.04-.332.04-.164 0-.278-.036-.342-.108-.064-.072-.096-.188-.096-.35v-2.359h.746v-.703h-.746v-1.027h-.95v1.027h-.694v.703h.695v2.395c0 .804.364 1.207 1.094 1.207Zm2.918 0c.51 0 .923-.118 1.238-.354.315-.236.473-.544.473-.924 0-.226-.052-.419-.155-.578a1.242 1.242 0 0 0-.472-.408c-.213-.113-.505-.211-.877-.293-.373-.082-.62-.163-.743-.244a.385.385 0 0 1-.183-.34c0-.161.066-.29.197-.387a.841.841 0 0 1 .51-.144c.224 0 .404.06.539.181a.585.585 0 0 1 .203.455h.95a1.19 1.19 0 0 0-.467-.972c-.312-.25-.72-.375-1.225-.375-.474 0-.865.122-1.172.367-.307.245-.46.55-.46.914 0 .435.236.767.71.996.216.104.486.19.809.258.323.068.554.146.693.234a.43.43 0 0 1 .209.387.441.441 0 0 1-.195.373c-.13.095-.32.143-.57.143-.258 0-.466-.06-.622-.182a.669.669 0 0 1-.254-.518h-.922c0 .253.076.489.227.708.151.218.362.39.633.515.27.125.58.188.926.188Zm4.304-1.75c.006-.375.094-.66.266-.856l.48-.472c.396-.412.594-.83.594-1.254 0-.477-.146-.848-.44-1.114-.292-.265-.7-.398-1.224-.398-.508 0-.916.134-1.225.402-.308.268-.465.633-.47 1.094h.949c0-.216.068-.387.205-.514.137-.126.317-.19.541-.19.234 0 .412.065.533.194.121.13.182.316.182.56a.922.922 0 0 1-.156.516c-.068.105-.229.28-.483.526s-.424.472-.51.678c-.085.205-.128.481-.128.828h.886Zm-.418 1.718c.172 0 .305-.048.399-.144a.495.495 0 0 0 .14-.36.504.504 0 0 0-.144-.369.53.53 0 0 0-.395-.146.532.532 0 0 0-.39.142.5.5 0 0 0-.145.373c0 .144.046.263.139.36.092.096.224.144.396.144Z" transform="rotate(-17 102.106 21.594)"/></g></g></g></g></svg>